<?xml version="1.0" encoding="UTF-8"?>
<!-- Uploaded to: SVG Repo, www.svgrepo.com, Generator: SVG Repo Mixer Tools -->
<svg width="800px" height="800px" version="1.1" viewBox="0 0 24 24" xmlns="http://www.w3.org/2000/svg">
 <path d="m2 20.497c-0.41421 0-0.75 0.3358-0.75 0.75s0.33579 0.75 0.75 0.75h20c0.4142 0 0.75-0.3358 0.75-0.75s-0.3358-0.75-0.75-0.75h-5v-5.25c0-1.8856 0-2.8284-0.5858-3.4142s-1.5286-0.5858-3.4142-0.5858h-2c-1.8856 0-2.8284 0-3.4142 0.5858-0.58579 0.5858-0.58579 1.5286-0.58579 3.4142v5.25h-5zm7.25-6.25c0-0.4142 0.33579-0.75 0.75-0.75h4c0.4142 0 0.75 0.3358 0.75 0.75s-0.3358 0.75-0.75 0.75h-4c-0.41421 0-0.75-0.3358-0.75-0.75zm0 3c0-0.4142 0.33579-0.75 0.75-0.75h4c0.4142 0 0.75 0.3358 0.75 0.75s-0.3358 0.75-0.75 0.75h-4c-0.41421 0-0.75-0.3358-0.75-0.75z" clip-rule="evenodd" fill="#fff" fill-rule="evenodd"/>
 <g transform="translate(0 -.75327)" fill="#d2ddff" opacity=".57878">
  <path d="m 8,4.5 c 0.94281,0 1.41421,0 1.70711,0.29289 C 10,5.08579 10,5.55719 10,6.5 l -10e-6,1.79243 c 0.15681,0.0762 0.29311,0.17226 0.41421,0.29336 0.4041,0.40408 0.5294,0.97806 0.5683,1.91421 V 12 C 9.10855,12 8.16976,12.0018 7.58579,12.5858 7,13.1716 7,14.1144 7,16 v 5.25 H 3 V 12 C 3,10.1144 3,9.17157 3.58579,8.58579 3.70688,8.46469 3.84322,8.36864 4,8.29243 V 6.5 C 4,5.55719 4,5.08579 4.29289,4.79289 4.58579,4.5 5.05719,4.5 6,4.5 H 6.25 V 3 C 6.25,2.58579 6.58579,2.25 7,2.25 7.41421,2.25 7.75,2.58579 7.75,3 v 1.5 z"/>
  <path d="m20.644 5.2468c-0.3562-0.51392-0.9839-0.74933-2.2394-1.2201-2.4552-0.92071-3.6829-1.3811-4.5437-0.78453-0.8608 0.59654-0.8608 1.9076-0.8608 4.5298v4.228c1.8856 0 2.8284 0 3.4142 0.5858s0.5858 1.5286 0.5858 3.4142v5.25h4v-13.478c0-1.3408 0-2.0113-0.3561-2.5252z"/>
 </g>
</svg>
