<svg class="cf-icon-svg" width="256" height="256" fill="#000000" version="1.1" viewBox="0 0 256 256" xml:space="preserve" xmlns="http://www.w3.org/2000/svg"><g transform="matrix(11.2,0,0,11.2,-6.4,-6.4)"><path d="M 2,12 C 2,7.28595 2,4.92893 3.46447,3.46447 4.92893,2 7.28595,2 12,2 16.714,2 19.0711,2 20.5355,3.46447 22,4.92893 22,7.28595 22,12 c 0,4.714 0,7.0711 -1.4645,8.5355 C 19.0711,22 16.714,22 12,22 7.28595,22 4.92893,22 3.46447,20.5355 2,19.0711 2,16.714 2,12 Z" fill="currentColor"/><path d="m12 7.25c0.4142 0 0.75 0.33579 0.75 0.75v3.6893l2.2803 2.2804c0.2929 0.2929 0.2929 0.7677 0 1.0606s-0.7677 0.2929-1.0606 0l-2.5-2.5c-0.1407-0.1406-0.2197-0.3314-0.2197-0.5303v-4c0-0.41421 0.3358-0.75 0.75-0.75z" clip-rule="evenodd" fill="#000" fill-rule="evenodd"/></g></svg>
