<?xml version="1.0" encoding="UTF-8"?>
<svg width="256" height="256" version="1.1" viewBox="0 0 256 256" xmlns="http://www.w3.org/2000/svg"><path d="m203.53 229.64h-151.07c-13.161 0-24.949-6.8052-31.528-18.202-6.5801-11.398-6.5812-25.008 0-36.406l75.537-130.83c6.5801-11.398 18.367-18.202 31.528-18.202s24.949 6.8052 31.528 18.202l75.536 130.83c6.5812 11.399 6.5812 25.008 0 36.406-6.5812 11.399-18.368 18.202-31.529 18.202zm-75.536-193.18c-9.3791 0-17.777 4.8496-22.467 12.971l-75.537 130.83c-4.6893 8.1226-4.6886 17.821 0 25.943 4.6886 8.1222 13.089 12.971 22.467 12.971h151.07c9.3791 0 17.777-4.8496 22.467-12.971 4.6893-8.1215 4.6893-17.821 0-25.943l-75.536-130.83c-4.6886-8.1226-13.088-12.971-22.466-12.971zm91.317 144.39-72.834-126.15c-3.8578-6.6827-10.767-10.671-18.483-10.671-7.7166 0-14.626 3.9895-18.484 10.671l-72.834 126.15c-3.8589 6.6827-3.8578 14.661 0 21.343s10.767 10.671 18.484 10.671h145.67c7.7166 0 14.626-3.9895 18.484-10.671 3.8578-6.6819 3.8567-14.661-1e-3 -21.343zm-104.51-86.787c0-7.2727 5.9169-13.19 13.19-13.19 7.2727 0 13.19 5.9169 13.19 13.19v42.804c0 7.273-5.9169 13.19-13.19 13.19-7.2727 0-13.19-5.9169-13.19-13.19zm13.19 94.9c-7.4528 0-13.516-6.0634-13.516-13.516 0-7.4528 6.0634-13.516 13.516-13.516 7.4528 0 13.516 6.0634 13.516 13.516 0 7.4528-6.0634 13.516-13.516 13.516z" fill="currentColor" stroke-width=".36601"/></svg>
