<?xml version="1.0" encoding="UTF-8"?>
<!-- Uploaded to: SVG Repo, www.svgrepo.com, Generator: SVG Repo Mixer Tools -->
<svg class="cf-icon-svg" width="256" height="256" fill="#000000" version="1.1" viewBox="0 0 256 256" xml:space="preserve" xmlns="http://www.w3.org/2000/svg"><path d="m127.98 59.268c-25.462 0-46.394 11.559-62.444 26.438-15.035 13.981-25.423 30.578-30.734 42.293 5.3111 11.716 15.699 28.313 30.695 42.293 16.089 14.879 37.021 26.438 62.483 26.438 25.462 0 46.394-11.559 62.444-26.438 15.035-13.981 25.423-30.578 30.734-42.293-5.3111-11.716-15.699-28.313-30.695-42.293-16.089-14.879-37.021-26.438-62.483-26.438zm-75.214 12.731c18.394-17.105 43.66-31.476 75.214-31.476 31.554 0 56.821 14.371 75.214 31.476 18.276 16.988 30.5 37.256 36.318 51.197 1.2887 3.0851 1.2887 6.5217 0 9.6068-5.8188 13.942-18.042 34.249-36.318 51.197-18.394 17.105-43.66 31.476-75.214 31.476-31.554 0-56.821-14.371-75.214-31.476-18.276-16.949-30.5-37.256-36.279-51.197-1.2887-3.0851-1.2887-6.5217 0-9.6068 5.7797-13.942 18.003-34.249 36.279-51.197zm75.214 87.242c17.261 0 31.242-13.981 31.242-31.242 0-17.261-13.981-31.242-31.242-31.242h-0.78105c0.50768 1.9917 0.78105 4.1005 0.78105 6.2483 0 13.785-11.208 24.993-24.993 24.993-2.1479 0-4.2567-0.27337-6.2483-0.78104v0.78104c0 17.261 13.981 31.242 31.242 31.242zm0-81.228a49.987 49.987 0 1 1 0 99.973 49.987 49.987 0 1 1 0-99.973z" fill="currentColor" stroke-width=".39052"/></svg>
