<?xml version="1.0" encoding="UTF-8"?>
<!-- Uploaded to: SVG Repo, www.svgrepo.com, Generator: SVG Repo Mixer Tools -->
<svg class="jam jam-microchip" width="256" height="256" fill="#000000" preserveAspectRatio="xMinYMin" version="1.1" viewBox="-2 -2 256 256" xmlns="http://www.w3.org/2000/svg">
 <path d="m80.502 46.376h90.998a34.124 34.124 0 0 1 34.124 34.124v90.998a34.124 34.124 0 0 1-34.124 34.124h-90.998a34.124 34.124 0 0 1-34.124-34.124v-90.998a34.124 34.124 0 0 1 34.124-34.124zm0 22.75a11.375 11.375 0 0 0-11.375 11.375v90.998a11.375 11.375 0 0 0 11.375 11.375h90.998a11.375 11.375 0 0 0 11.375-11.375v-90.998a11.375 11.375 0 0 0-11.375-11.375zm22.75 22.75h45.499a11.375 11.375 0 0 1 11.375 11.375v45.499a11.375 11.375 0 0 1-11.375 11.375h-45.499a11.375 11.375 0 0 1-11.375-11.375v-45.499a11.375 11.375 0 0 1 11.375-11.375zm11.375 22.75v22.75h22.75v-22.75zm-34.124-102.37a11.375 11.375 0 0 1 11.375 11.375v22.75a11.375 11.375 0 1 1-22.75 0v-22.75a11.375 11.375 0 0 1 11.375-11.375zm-56.874 56.874h22.75a11.375 11.375 0 1 1 0 22.75h-22.75a11.375 11.375 0 1 1 0-22.75zm182 0h22.75a11.375 11.375 0 0 1 0 22.75h-22.75a11.375 11.375 0 0 1 0-22.75zm-182 45.499h22.75a11.375 11.375 0 1 1 0 22.75h-22.75a11.375 11.375 0 0 1 0-22.75zm182 0h22.75a11.375 11.375 0 0 1 0 22.75h-22.75a11.375 11.375 0 0 1 0-22.75zm-182 45.499h22.75a11.375 11.375 0 0 1 0 22.75h-22.75a11.375 11.375 0 0 1 0-22.75zm182 0h22.75a11.375 11.375 0 0 1 0 22.75h-22.75a11.375 11.375 0 0 1 0-22.75zm-125.12 34.124a11.375 11.375 0 0 1 11.375 11.375v22.75a11.375 11.375 0 0 1-22.75 0v-22.75a11.375 11.375 0 0 1 11.375-11.375zm90.998-182a11.375 11.375 0 0 1 11.375 11.375v22.75a11.375 11.375 0 0 1-22.75 0v-22.75a11.375 11.375 0 0 1 11.375-11.375zm0 182a11.375 11.375 0 0 1 11.375 11.375v22.75a11.375 11.375 0 0 1-22.75 0v-22.75a11.375 11.375 0 0 1 11.375-11.375zm-45.499-182a11.375 11.375 0 0 1 11.375 11.375v22.75a11.375 11.375 0 0 1-22.75 0v-22.75a11.375 11.375 0 0 1 11.375-11.375zm0 182a11.375 11.375 0 0 1 11.375 11.375v22.75a11.375 11.375 0 0 1-22.75 0v-22.75a11.375 11.375 0 0 1 11.375-11.375z" fill="#4b9dce" stroke-width="11.375"/>
</svg>
