<?xml version="1.0" encoding="UTF-8"?>
<!-- Uploaded to: SVG Repo, www.svgrepo.com, Generator: SVG Repo Mixer Tools -->
<svg version="1.1" viewBox="0 0 511.98 511.98" xml:space="preserve" xmlns="http://www.w3.org/2000/svg">
<path d="M458.635,0H53.33c-5.891,0-10.672,4.772-10.672,10.663v490.646c0,5.891,4.781,10.672,10.672,10.672  h405.305c5.906,0,10.688-4.781,10.688-10.672V10.663C469.322,4.772,464.541,0,458.635,0z" fill="#656D78"/>
<g fill="#434A54">
	<path d="m426.64 74.66c-5.875 0-10.656 4.773-10.656 10.664v63.998c0 5.891 4.781 10.664 10.656 10.664 5.904 0 10.686-4.773 10.686-10.664v-63.998c0-5.89-4.781-10.664-10.686-10.664z"/>
	<path d="m426.64 341.31c-5.875 0-10.656 4.781-10.656 10.672v63.998c0 5.89 4.781 10.655 10.656 10.655 5.904 0 10.686-4.766 10.686-10.655v-63.998c0-5.891-4.781-10.672-10.686-10.672z"/>
</g>
<rect x="85.33" y="42.662" width="341.31" height="426.65" fill="#ED5564"/>
<path d="m371.95 325-106.64-191.53c-1.883-3.383-5.453-5.484-9.32-5.484s-7.438 2.102-9.32 5.484l-106.89 191.98c-1.844 3.312-1.797 7.344 0.125 10.594 1.914 3.266 5.414 5.266 9.195 5.266h213.79c5.906 0 10.656-4.781 10.656-10.672 1e-3 -2.063-0.593-4.001-1.593-5.641z" fill="#FFCE54"/>
<path d="m255.97 309.32c-1.602 0-3.234-0.359-4.766-1.125-5.266-2.641-7.398-9.047-4.766-14.312l13.617-27.234-25.406 0.016c-3.695 0-7.124-1.922-9.069-5.062-1.945-3.148-2.117-7.077-0.469-10.382l21.335-42.663c2.633-5.273 9.039-7.406 14.312-4.773 5.266 2.633 7.406 9.039 4.766 14.312l-13.609 27.225h25.414c3.687 0 7.124 1.914 9.062 5.062 1.938 3.141 2.125 7.069 0.469 10.374l-21.343 42.671c-1.867 3.735-5.632 5.891-9.547 5.891z" fill="#434A54"/>
<path d="m330.64 405.31h-149.32c-5.89 0-10.671-4.781-10.671-10.672 0-5.89 4.781-10.655 10.671-10.655h149.32c5.906 0 10.688 4.766 10.688 10.655 0 5.891-4.781 10.672-10.688 10.672z" fill="#DA4453"/>
</svg>
