<?xml version="1.0" encoding="UTF-8"?>
<!-- Uploaded to: SVG Repo, www.svgrepo.com, Generator: SVG Repo Mixer Tools -->
<svg id="icon" width="256" height="256" fill="#000000" version="1.1" viewBox="0 0 256 256" xmlns="http://www.w3.org/2000/svg">
 <defs>
  <style>.cls-1 {
        fill: none;
      }</style>
 </defs>
 <path d="m47.578 15.506c-8.904 0-16.072 7.1672-16.072 16.07v192.85c0 8.9031 7.1682 16.07 16.072 16.07h160.84c8.904 0 16.072-7.1672 16.072-16.07v-192.85c0-8.9031-7.1682-16.07-16.072-16.07zm13.223 16.494h134.4c7.4402 0 13.43 5.9903 13.43 13.43v166.74c0 7.4394-5.9895 13.43-13.43 13.43h-134.4c-7.4402 0-13.432-5.9903-13.432-13.43v-166.74c0-7.4393 5.9915-13.43 13.432-13.43zm27.199 24c-4.432 0-8 3.568-8 8v1.5996c0 4.432 3.568 8 8 8h80c4.432 0 8-3.568 8-8v-1.5996c0-4.432-3.568-8-8-8zm16 40c-4.432 0-8 3.568-8 8v1.5996c0 4.432 3.568 8 8 8h48c4.432 0 8-3.568 8-8v-1.5996c0-4.432-3.568-8-8-8z" fill="#ffb100" fill-opacity=".95254" stop-color="#000000" style="-inkscape-stroke:none;font-variation-settings:normal;paint-order:normal"/>
</svg>
