<svg version="1.1" viewBox="0 0 512 512" xml:space="preserve" xmlns="http://www.w3.org/2000/svg"><path d="m29.396 267.55a29.43 29.43 0 0 0 29.671-29.396v-15.403c0-34.518 24.273-57.657 61.37-57.657h172.08v46.827c0 13.993 8.8703 22.829 23.138 22.829a25.614 25.614 0 0 0 16.847-6.2917l88.737-74.469c10.864-9.1453 10.864-23.723 0-32.834l-88.737-75.053a25.614 25.614 0 0 0-16.847-6.2917c-14.268 0-23.104 8.8703-23.104 22.863v44.489h-167.81c-76.222 0-124.73 43.114-124.73 110.47v20.525c0 16.297 13.133 29.396 29.396 29.396zm167.23 204.63c13.993 0 22.829-8.8359 22.829-22.829v-44.798h167.81c76.497 0 124.73-43.114 124.73-110.47v-20.525a29.396 29.396 0 1 0-58.791 0v15.403c0 34.518-24.548 57.657-61.645 57.657h-172.11v-46.517c0-13.993-8.8359-22.829-22.829-22.829a26.37 26.37 0 0 0-17.122 6.2573l-88.462 74.778c-11.139 8.8359-10.83 23.379 0 32.524l88.462 75.363a27.745 27.745 0 0 0 17.122 5.9823z" fill="currentColor"/></svg>
