<svg width="256" height="256" version="1.1" viewBox="0 0 256 256" xml:space="preserve"
     xmlns="http://www.w3.org/2000/svg">

    <path d="m240 46.545c0-16.87-13.675-30.545-30.545-30.545h-162.91c-16.87 0-30.545 13.676-30.545 30.545v162.91c0 16.87 13.676 30.545 30.545 30.545h162.91c16.87 0 30.545-13.675 30.545-30.545zm-20.364 0c0-5.6232-4.5584-10.182-10.182-10.182h-162.91c-5.6232 0-10.182 4.5586-10.182 10.182v162.91c0 5.6234 4.5586 10.182 10.182 10.182h162.91c5.6234 0 10.182-4.5584 10.182-10.182z"  fill="currentColor" clip-rule="evenodd" fill-rule="evenodd" stroke-width="10.182"/>
    <path d="m189.49 87.349c0 11.238-9.1102 20.349-20.349 20.349s-20.349-9.1105-20.349-20.349 9.1102-20.349 20.349-20.349 20.349 9.1105 20.349 20.349zm-134.24 96.872 43.907-80.496c3.8563-7.0698 14.008-7.0698 17.864 0l32.239 59.105 11.042-19.323c3.906-6.8352 13.761-6.8352 17.667 0l23.166 40.54c3.8754 6.7823-1.0225 15.222-8.8345 15.222h-128.12c-7.723 0-12.63-8.2667-8.932-15.047z"
          fill="currentColor" stroke-width="10.174"/></svg>
