<svg width="130" height="130" version="1.1" viewBox="0 0 130 130" xml:space="preserve"
     xmlns="http://www.w3.org/2000/svg"><g>
    <path d="m85 120h-40l-35-110h110z" fill="#121" stroke="#000" stroke-linejoin="bevel" stroke-opacity=".56641"
          stroke-width="19.172" style="paint-order:normal"/>
    <path fill="#FFF"
          d="m30.755 36.687c1.1908 0.09085 1.0182 1.0779 1.4798 1.9581 0.3831 0.73042 1.0079 1.3559 1.6832 1.8217 3.7704 2.601 11.91 1.7613 12.351-3.7798h6.1754v-2.1087c4.6725 0 4.2446 0.46849 5.1595 5.8742 4.9412 29.196 1.9412 63.196 1.9412 63.196h12s-1.4459-42.347 1.9412-63.196c1.6607-5.225 1.3973-5.8742 6.0698-5.8742v2.1087h6.1754c0.44097 5.5411 8.5804 6.3808 12.351 3.7798 0.67528-0.46584 1.3001-1.0913 1.6832-1.8217 0.46162-0.88012 0.28898-1.8672 1.4798-1.9581 0-1.9005 0.58659-7.7746-0.91952-9.2237-1.6672-1.6041-5.0896-0.93208-7.214-0.93208-3.4535 0-7.1114-0.34702-10.543 0.02618-1.1002 0.11962-1.8143 1.0458-2.8618 1.1624-2.4763 0.27578-4.8015-0.20309-7.2298 0.61945-1.7358 0.58799-3.3608 1.5814-4.6691 2.8634-0.3867 0.37893-1.2432 1.7969-1.8076 1.7969-0.5644 0-1.4209-1.4179-1.8076-1.7969-1.3083-1.282-2.9333-2.2754-4.6691-2.8634-2.4283-0.82254-4.7535-0.34367-7.2298-0.61945-1.0475-0.11665-1.7616-1.0428-2.8618-1.1624-3.432-0.37317-7.0898-0.02618-10.543-0.02618-2.1244 0-5.5468-0.67201-7.214 0.93208-1.5061 1.4491-0.91952 7.3232-0.91952 9.2237m13.706 0c-0.08683 1.6703-1.5304 2.6097-3.0124 3.0543-2.7307 0.81926-7.1968 0.40399-7.9829-2.9037l3.7655-0.15062h7.2298m54.073 0.15062c-0.78603 3.3077-5.2522 3.723-7.9829 2.9037-1.482-0.44464-2.9256-1.3841-3.0124-3.0543h7.2297z"/>
</g>
</svg>