<?xml version="1.0" encoding="UTF-8"?>
<svg enable-background="new 0 0 256 256" version="1.1" viewBox="0 0 256 256" xml:space="preserve" xmlns="http://www.w3.org/2000/svg">
<path d="m127.9 26.45c-16.814 0-33.638 0.2143-35.488 0.60156-7.6593 1.6351-13.512 7.8328-14.889 15.578-0.17212 1.8933-0.34387 16.523-0.25781 50l0.08594 47.246 0.94726 2.3242c1.8933 4.9914 5.1633 8.7781 9.8105 11.016l2.4961 1.2051 0.17188 9.9824c0.17212 11.274 0.42982 12.393 3.0977 16.523 1.8933 2.926 5.3355 5.6799 8.4336 6.8848l2.3242 0.86133v10.584c0 11.876 0.25843 13.425 2.582 17.9 2.84 5.3357 7.5717 9.294 13.51 11.359 2.6678 0.94664 3.874 1.0332 7.3164 1.0332 3.5284 0 4.6466-0.1726 7.3144-1.0332 5.9381-2.0654 10.672-6.0237 13.426-11.359 2.4096-4.5611 2.582-6.1962 2.582-17.986v-10.498l1.8926-0.68946c6.1102-2.3236 10.584-7.7449 11.617-14.113 0.17212-1.463 0.43164-6.3685 0.43164-10.93v-8.3476l2.582-1.291c4.6472-2.2375 7.9172-6.0242 9.8106-11.016l0.94532-2.3242 0.0859-47.246c0.0861-33.563 4.8e-4 -48.021-0.34376-49.914-1.3769-7.8314-7.2291-13.943-15.061-15.664-1.8072-0.47333-18.61-0.6875-35.424-0.6875zm23.549 6.541 5.8516 0.17188c5.4217 0.25818 6.0247 0.34436 7.918 1.291 2.4097 1.2048 4.5608 3.4419 5.7656 5.8516l0.94531 1.8066v97.248l-0.94531 1.8926c-1.2048 2.4097-3.6159 4.7346-5.9394 5.9394-1.6351 0.77454-2.5806 0.9452-7.7441 1.0313l-5.8516 0.0859v-57.658zm-52.066 0.25781h5.25v115.15h-5.3359c-4.389 0-5.681-0.17102-7.4883-0.77344-2.5818-0.94664-5.42-3.6154-6.7109-6.2832l-0.94727-1.8926v-97.248l0.94727-1.8066c1.6351-3.1842 4.6456-5.7661 8.002-6.7988 0.51636-0.17212 3.3572-0.34375 6.2832-0.34375zm11.617 0h34.08v115.15h-34.08v-57.572zm24.012 6.8848c-0.17212 0-0.86059 0.0857-1.377 0.25781-2.1515 0.86059-2.7544 3.6148-1.0332 5.3359 2.0654 2.0654 5.3359 0.60192 5.3359-2.4102 0-1.2909-1.0338-3.0117-1.9805-3.0117-0.17212 0-0.60107-0.08582-0.94531-0.17188zm-41.014 0.18945c-0.88607-0.0025-1.751 0.27899-2.2754 0.84375-1.1188 1.2909-1.0312 3.5277 0.3457 4.6465 1.2048 1.0327 2.0643 1.2041 3.5273 0.51563 1.8933-0.86059 2.4102-3.1831 1.0332-4.9043-0.59435-0.7315-1.6266-1.0987-2.6309-1.1016zm67.857 0.0293c-0.9418 0.01558-1.8557 0.38648-2.4043 1.0723-1.377 1.7212-0.86011 4.0437 1.0332 4.9043 1.463 0.68847 2.3245 0.51708 3.5293-0.51563 1.463-1.2048 1.5488-3.6138 0.17187-4.6465-0.64545-0.56476-1.4991-0.8282-2.3301-0.81445zm-40.701 0.01758c-0.86599 0.01268-1.7119 0.27245-2.2363 0.79688-1.8933 1.8933-0.25768 5.5938 2.4102 5.5938 2.6678 0 4.2174-3.5285 2.4102-5.5078-0.59435-0.59435-1.6026-0.89719-2.584-0.88281zm-26.936 13.447c-0.68847 0.08606-1.7202 0.25745-2.0645 0.51563s-0.86108 1.0325-1.0332 1.5488c-1.3769 3.6145 3.9585 6.0243 5.6797 2.668 0.77453-1.5491 0.7749-2.4944-0.25781-3.6992-0.60241-0.77453-1.1194-1.0332-2.3242-1.0332zm67.471 0c-1.1188 0.08606-1.6359 0.34461-2.2383 1.1191-1.6351 2.0654-0.1715 5.248 2.3242 5.248 2.3236 0 3.9581-2.1511 3.1836-4.3887-0.51636-1.463-1.4623-1.9785-3.2695-1.9785zm-40.539 0.0293c-0.83718 0.0089-1.6677 0.31286-2.2324 0.91797-1.1188 1.2048-1.033 3.2698 0.17187 4.4746 2.84 2.926 7.0563-1.1185 4.5606-4.3027-0.59435-0.7315-1.5512-1.0999-2.5-1.0898zm13.699 2e-3c-0.89286 0.01076-1.7746 0.3136-2.334 0.91602-1.8933 1.9794-0.42967 5.4199 2.3242 5.4199 2.6678 0 4.2154-3.5284 2.4082-5.5078-0.60241-0.55939-1.5056-0.83888-2.3984-0.82813zm-0.11328 13.453c-0.84146-0.0053-1.6854 0.34579-2.3066 1.1445-1.1188 1.463-1.033 3.0999 0.17188 4.3047 1.9794 2.0654 5.3359 0.68761 5.3359-2.1523 0-1.9767-1.5947-3.2868-3.2012-3.2969zm-13.539 0.02734c-0.81709 0.02009-1.6286 0.34021-2.1934 0.94531-1.2909 1.3769-1.2051 3.5297 0.17187 4.6484 1.463 1.1188 3.0979 1.033 4.3027-0.17188 1.2048-1.2048 1.2906-2.9277 0.17188-4.3047-0.59435-0.77722-1.5271-1.14-2.4531-1.1172zm40.865 2e-3c-0.85503 0.0011-1.7383 0.33006-2.4375 1.0293-2.0654 1.9794-0.60363 5.3359 2.2363 5.3359 2.4096 0 3.8722-2.0651 3.0976-4.3887-0.45988-1.2774-1.6468-1.9781-2.8965-1.9766zm-68.242 0.01172c-0.59166 0.0013-1.1712 0.15772-1.666 0.50195-1.5491 1.2048-1.5491 4.1311 0 5.3359 1.9794 1.5491 5.248-0.17237 5.248-2.582 0.06454-1.8718-1.8071-3.2599-3.582-3.2559zm68.174 13.555c-0.88212 0.01494-1.7882 0.3453-2.3691 0.97461-2.6678 2.6678 0.77454 6.7994 4.1308 4.9922 1.6351-0.94665 1.7211-4.131 0.0859-5.4219-0.48946-0.37651-1.1616-0.55654-1.8477-0.54492zm-40.744 0.01563c-0.70808 0.0038-1.4288 0.26269-2.0742 0.78711-0.77453 0.60242-1.0332 1.1194-1.0332 2.3242 0 1.9794 1.2921 3.1836 3.2715 3.1836 2.7539 0 4.1299-3.4426 2.0644-5.3359-0.64007-0.64007-1.426-0.96332-2.2285-0.95898zm13.689 0.0039c-0.81356-0.01904-1.6575 0.27467-2.3379 0.95508-2.0654 1.9794-0.68761 5.3359 2.1524 5.3359 1.9794 0 3.1836-1.2902 3.1836-3.2695 0-1.8072-1.4449-2.9851-2.998-3.0215zm-40.807 0.0078c-0.68847 0-1.5483 0.17334-1.8926 0.51758-1.6351 1.2048-1.5492 4.4752 0.08594 5.4219 1.3769 0.68847 3.098 0.4292 4.2168-0.60352 1.9794-1.9794 0.4298-5.3359-2.4102-5.3359zm0.1875 13.432c-0.63284 0.01009-1.295 0.23178-1.9082 0.68359-1.2909 0.86059-1.7214 2.2362-1.2051 3.6992 0.51636 1.463 1.4623 1.9805 3.2695 1.9805 1.0327 0 1.5499-0.25866 2.1523-1.0332 1.0327-1.2048 1.0323-2.1521 0.25781-3.7012-0.53787-1.0757-1.5117-1.6457-2.5664-1.6289zm67.574 0.0293c-0.78515-0.0037-1.5918 0.29613-2.2695 0.99805-1.9794 1.9794-0.68945 5.3359 2.0644 5.3359 1.8933 0 2.7532-0.51745 3.2695-1.9805 0.80411-2.3505-1.058-4.344-3.0644-4.3535zm-40.645 0.03711c-0.70808 0.0038-1.4288 0.26464-2.0742 0.78906-2.3236 1.8072-0.85972 5.5078 2.1524 5.5078 2.84 0 4.2158-3.3566 2.1504-5.3359-0.64007-0.64007-1.426-0.96527-2.2285-0.96094zm13.371 0.0039c-0.66404-0.02143-1.4548 0.39227-2.0195 0.95703-2.0654 2.0654-0.68773 5.3359 2.2383 5.3359 1.8072 0 3.0977-1.3765 3.0977-3.0977 0-1.6351-1.5485-3.1855-3.1836-3.1855-0.043-0.0054-0.0885-0.0083-0.13282-0.0098zm-40.664 13.492c-0.64368 0.0278-1.211 0.30972-1.8887 0.89062-2.3236 1.9794-1.0337 5.4218 2.0645 5.5078 3.4424 0.0861 4.647-4.6484 1.5488-6.0254-0.67772-0.26356-1.224-0.39467-1.7246-0.37305zm67.967 0.0625c-0.49195 0.0135-1.009 0.13831-1.5254 0.39648-1.6351 0.77454-2.1518 3.0994-1.1191 4.6484 1.5491 2.1515 4.8191 1.7202 5.6797-0.68945 0.76916-2.3774-0.90332-4.4139-3.0352-4.3555zm-41.246 0.0117c-0.59859-6.9e-4 -0.96946 0.22476-1.502 0.81641-1.8072 1.8072-1.2903 4.6473 0.94728 5.4219 3.0981 1.0327 5.6805-2.5824 3.7012-5.0781-0.4303-0.51637-1.3778-0.94715-2.1524-1.0332-0.4034-0.0807-0.72205-0.12664-0.99414-0.12696zm13.871 0.0176c-0.41463 0.0139-0.84024 0.10375-1.2598 0.28125-1.0327 0.43029-1.7207 1.5505-1.7207 3.0996 0 2.2376 2.1511 3.6144 4.3887 2.8398 1.377-0.51636 1.9805-1.3784 1.9805-3.0996 0-1.818-1.592-3.1815-3.3887-3.1211zm-13.398 13.426c-0.39078 0.0138-0.80633 0.14128-1.3711 0.36718-1.5491 0.60242-2.2377 3.0993-1.291 4.7344 0.60241 1.2048 2.582 1.8055 3.959 1.2031 1.377-0.51635 1.9785-1.4628 1.9785-2.9258 0-1.5491-0.42994-2.1514-1.6348-2.8398-0.67771-0.38727-1.1382-0.55683-1.6406-0.53906zm13.543 0.0508c-0.45225-8e-3 -0.90224 0.0905-1.3164 0.3164-1.2048 0.68848-1.8086 1.549-1.8086 2.8398 0 2.4957 2.1511 3.9582 4.3887 3.0976 1.463-0.60241 1.9805-1.4625 1.9805-3.0976 0-1.7481-1.629-3.1284-3.2442-3.1562zm26.918 0c-0.6051 0.0202-1.0399 0.29587-1.8144 1.0059-0.68848 0.77453-1.2051 1.6339-1.2051 2.2363 0 0.60241 0.51659 1.5498 1.2051 2.2383 1.0327 1.0327 1.4614 1.1194 2.4941 0.94726 1.8072-0.34423 2.8418-1.5504 2.8418-3.1855s-1.0346-2.8394-2.8418-3.1836c-0.25818-0.043-0.47799-0.0653-0.67969-0.0586zm-67.676 0.0742c-0.43282 7e-3 -0.86222 0.11297-1.2656 0.32811-2.926 1.463-2.1511 5.4229 1.1191 6.1113 1.0327 0.17213 1.4634-6.2e-4 2.4961-0.94726 1.463-1.463 1.5486-2.8398 0.34375-4.2168-0.76915-0.82832-1.7412-1.2911-2.6934-1.2754zm68.023 13.521c-0.38878-1e-3 -0.79726 0.0711-1.2168 0.23242-1.0327 0.4303-2.1504 1.8932-2.1504 2.8398 0 1.2048 0.85986 2.5813 1.8926 3.0976 1.463 0.68848 2.3245 0.51709 3.5293-0.51562 2.4096-2.0332 0.66676-5.6472-2.0547-5.6543zm-67.986 0.0176c-0.22502-5e-3 -0.45913 0.0107-0.70117 0.043-2.4097 0.4303-3.0964 3.8727-1.2031 5.5078 0.60242 0.51635 1.4624 0.94532 1.8066 0.94532 2.926 0 4.5613-3.1825 2.668-5.334-0.76915-0.76916-1.5952-1.1422-2.5703-1.1621zm27.332 0.0117c-0.35903 4e-3 -0.92309 0.11682-1.4394 0.375-1.377 0.60241-1.7227 1.2905-1.7227 3.0117 0 2.4097 2.497 3.7867 4.6484 2.668 1.2909-0.68847 1.6348-1.3766 1.6348-3.0117 0-1.0327-1.204-2.8398-1.9785-2.8398-0.17212 0-0.51709-0.0858-0.86133-0.17187-0.0645-0.0215-0.16157-0.0326-0.28125-0.0312zm13.316 0.0312c-0.35046 0.0134-0.81385 0.1286-1.2441 0.34375-1.377 0.60241-1.7227 1.2905-1.7227 3.0117 0 1.8072 1.2062 3.0117 3.1856 3.0117 2.0654 0 3.1836-1.2042 3.1836-3.1836 0-1.2909-1.1199-2.9258-1.9805-2.9258-0.17212 0-0.60107-0.0858-0.94531-0.17188-0.0968-0.0645-0.26629-0.094-0.47656-0.0859zm-37.133 20.051h61.104v8.8652c0 10.241-0.25783 11.445-3.0117 14.543-0.94665 1.0327-2.5825 2.3235-3.6152 2.8398l-1.8926 0.94727h-22.031c-24.871 0-23.323 0.17284-27.023-3.2695-3.1842-3.0121-3.5293-4.3893-3.5293-14.975zm13.512 33.65h34.08v7.2285h-34.08v-3.6152zm5.2285 13.586c3.0766-0.0323 7.2943-0.0313 11.898 0.0117l16.695 0.0859 0.25782 2.2363c0.0861 1.2048 1.2e-4 2.7549-0.0859 3.4434l-0.25782 1.291h-33.305l-0.25977-0.94727c-0.34424-1.2048-0.34424-5.6793 0-5.9375 0.043-0.0861 1.98-0.15132 5.0566-0.18358zm-1.957 13.953h27.453l-1.8086 1.8066c-1.0327 1.0327-3.0973 2.4089-4.7324 3.2695-2.84 1.463-3.0977 1.4629-7.2285 1.4629-4.0448 0-4.3044 1.1e-4 -7.2305-1.4629-1.6351-0.86059-3.6997-2.2368-4.7324-3.2695z" stroke-width=".86059"/>
</svg>
