<?xml version="1.0" encoding="UTF-8"?>
<svg width="256" height="256"  viewBox="0 0 256 256" xmlns="http://www.w3.org/2000/svg"><path d="m240 128a112 112 0 1 1-112-112 111.99 111.99 0 0 1 112 112zm-58.072-63.632a11.19 11.19 0 0 0-15.307 4.1026l-54.154 93.793-24.516-29.425a11.199 11.199 0 1 0-17.202 14.345l34.787 41.761a11.204 11.204 0 0 0 8.6012 4.0318 11.742 11.742 0 0 0 0.96199-0.0424 11.19 11.19 0 0 0 8.7427-5.5597l62.161-107.71a11.19 11.19 0 0 0-4.1026-15.293z" fill="currentColor" stroke-width="14.147"/></svg>
